<svg width="50" height="50" viewBox="0 0 50 50" fill="none" xmlns="http://www.w3.org/2000/svg">
<rect width="50" height="50" fill="white"/>
<path fill-rule="evenodd" clip-rule="evenodd" d="M33 25C33 29.4183 29.4183 33 25 33C20.5817 33 17 29.4183 17 25C17 20.5817 20.5817 17 25 17C28.012 17 30.6353 18.6646 32 21.124V18.5H33V23H32.748H31.7101H30H28.5V22H31.3264C30.2029 19.6351 27.7924 18 25 18C21.134 18 18 21.134 18 25C18 28.866 21.134 32 25 32C28.866 32 32 28.866 32 25H33Z" fill="black"/>
<mask id="mask0_2599_440" style="mask-type:alpha" maskUnits="userSpaceOnUse" x="17" y="17" width="16" height="16">
<path fill-rule="evenodd" clip-rule="evenodd" d="M33 25C33 29.4183 29.4183 33 25 33C20.5817 33 17 29.4183 17 25C17 20.5817 20.5817 17 25 17C28.012 17 30.6353 18.6646 32 21.124V18.5H33V23H32.748H31.7101H30H28.5V22H31.3264C30.2029 19.6351 27.7924 18 25 18C21.134 18 18 21.134 18 25C18 28.866 21.134 32 25 32C28.866 32 32 28.866 32 25H33Z" fill="white"/>
</mask>
<g mask="url(#mask0_2599_440)">
</g>
</svg>
